<?xml version="1.0" encoding="UTF-8" standalone="no"?>
<!-- Created with Inkscape (http://www.inkscape.org/) -->

<svg
   xmlns:dc="http://purl.org/dc/elements/1.1/"
   xmlns:cc="http://creativecommons.org/ns#"
   xmlns:rdf="http://www.w3.org/1999/02/22-rdf-syntax-ns#"
   xmlns:svg="http://www.w3.org/2000/svg"
   xmlns="http://www.w3.org/2000/svg"
   xmlns:sodipodi="http://sodipodi.sourceforge.net/DTD/sodipodi-0.dtd"
   xmlns:inkscape="http://www.inkscape.org/namespaces/inkscape"
   width="210mm"
   height="297mm"
   viewBox="0 0 210 297"
   version="1.1"
   id="svg8"
   inkscape:version="0.92.1 r15371"
   sodipodi:docname="0.svg">
  <defs
     id="defs2" />
  <sodipodi:namedview
     id="base"
     pagecolor="#ffffff"
     bordercolor="#666666"
     borderopacity="1.0"
     inkscape:pageopacity="0.0"
     inkscape:pageshadow="2"
     inkscape:zoom="0.49497475"
     inkscape:cx="-412.24078"
     inkscape:cy="1059.898"
     inkscape:document-units="mm"
     inkscape:current-layer="layer1"
     showgrid="false"
     inkscape:window-width="1920"
     inkscape:window-height="1017"
     inkscape:window-x="-8"
     inkscape:window-y="-8"
     inkscape:window-maximized="1" />
  <metadata
     id="metadata5">
    <rdf:RDF>
      <cc:Work
         rdf:about="">
        <dc:format>image/svg+xml</dc:format>
        <dc:type
           rdf:resource="http://purl.org/dc/dcmitype/StillImage" />
        <dc:title />
      </cc:Work>
    </rdf:RDF>
  </metadata>
  <g
     inkscape:label="Layer 1"
     inkscape:groupmode="layer"
     id="layer1">
    <text
       xml:space="preserve"
       style="font-style:normal;font-weight:normal;font-size:9.8777771px;line-height:1.25;font-family:sans-serif;letter-spacing:0px;word-spacing:0px;fill:#aa0000;fill-opacity:1;stroke:none;stroke-width:0.26458332"
       x="36.193985"
       y="124.71943"
       id="text4527"><tspan
         sodipodi:role="line"
         id="tspan4525"
         x="36.193985"
         y="124.71943"
         style="fill:#aa0000;stroke-width:0.26458332">let fe = function () {}</tspan></text>
    <text
       id="text4531"
       y="137.94849"
       x="36.760948"
       style="font-style:normal;font-weight:normal;font-size:9.8777771px;line-height:1.25;font-family:sans-serif;letter-spacing:0px;word-spacing:0px;fill:#000080;fill-opacity:1;stroke:none;stroke-width:0.26458332"
       xml:space="preserve"><tspan
         style="fill:#000080;stroke-width:0.26458332"
         y="137.94849"
         x="36.760948"
         id="tspan4529"
         sodipodi:role="line">var fea = function () {}</tspan></text>
    <text
       xml:space="preserve"
       style="font-style:normal;font-weight:normal;font-size:9.8777771px;line-height:1.25;font-family:sans-serif;letter-spacing:0px;word-spacing:0px;fill:#ff6600;fill-opacity:1;stroke:none;stroke-width:0.26458332"
       x="36.760948"
       y="151.17747"
       id="text4535"><tspan
         sodipodi:role="line"
         id="tspan4533"
         x="36.760948"
         y="151.17747"
         style="fill:#ff6600;stroke-width:0.26458332">const fen = function fen () {}</tspan></text>
    <text
       id="text4539"
       y="112.07312"
       x="36.193985"
       style="font-style:normal;font-weight:normal;font-size:9.8777771px;line-height:1.25;font-family:sans-serif;letter-spacing:0px;word-spacing:0px;fill:#008000;fill-opacity:1;stroke:none;stroke-width:0.26458332"
       xml:space="preserve"><tspan
         style="fill:#008000;stroke-width:0.26458332"
         y="112.07312"
         x="36.193985"
         id="tspan4537"
         sodipodi:role="line">.....................................</tspan></text>
    <text
       xml:space="preserve"
       style="font-style:normal;font-weight:normal;font-size:9.8777771px;line-height:1.25;font-family:sans-serif;letter-spacing:0px;word-spacing:0px;fill:#008000;fill-opacity:1;stroke:none;stroke-width:0.26458332"
       x="36.193985"
       y="105.19396"
       id="text4543"><tspan
         sodipodi:role="line"
         id="tspan4541"
         x="36.193985"
         y="105.19396"
         style="fill:#008000;stroke-width:0.26458332">.....................................</tspan></text>
    <text
       id="text4547"
       y="98.314781"
       x="36.193985"
       style="font-style:normal;font-weight:normal;font-size:9.8777771px;line-height:1.25;font-family:sans-serif;letter-spacing:0px;word-spacing:0px;fill:#008000;fill-opacity:1;stroke:none;stroke-width:0.26458332"
       xml:space="preserve"><tspan
         style="fill:#008000;stroke-width:0.26458332"
         y="98.314781"
         x="36.193985"
         id="tspan4545"
         sodipodi:role="line">.....................................</tspan></text>
    <text
       xml:space="preserve"
       style="font-style:normal;font-weight:normal;font-size:9.8777771px;line-height:1.25;font-family:sans-serif;letter-spacing:0px;word-spacing:0px;fill:#008000;fill-opacity:1;stroke:none;stroke-width:0.26458332"
       x="35.659447"
       y="190.47791"
       id="text4551"><tspan
         sodipodi:role="line"
         id="tspan4549"
         x="35.659447"
         y="190.47791"
         style="fill:#008000;stroke-width:0.26458332">.....................................</tspan></text>
    <text
       id="text4555"
       y="183.59875"
       x="35.659447"
       style="font-style:normal;font-weight:normal;font-size:9.8777771px;line-height:1.25;font-family:sans-serif;letter-spacing:0px;word-spacing:0px;fill:#008000;fill-opacity:1;stroke:none;stroke-width:0.26458332"
       xml:space="preserve"><tspan
         style="fill:#008000;stroke-width:0.26458332"
         y="183.59875"
         x="35.659447"
         id="tspan4553"
         sodipodi:role="line">.....................................</tspan></text>
    <text
       xml:space="preserve"
       style="font-style:normal;font-weight:normal;font-size:9.8777771px;line-height:1.25;font-family:sans-serif;letter-spacing:0px;word-spacing:0px;fill:#008000;fill-opacity:1;stroke:none;stroke-width:0.26458332"
       x="35.659447"
       y="176.7196"
       id="text4559"><tspan
         sodipodi:role="line"
         id="tspan4557"
         x="35.659447"
         y="176.7196"
         style="fill:#008000;stroke-width:0.26458332">.....................................</tspan></text>
    <text
       id="text4563"
       y="164.27353"
       x="36.22641"
       style="font-style:normal;font-weight:normal;font-size:9.8777771px;line-height:1.25;font-family:sans-serif;letter-spacing:0px;word-spacing:0px;fill:#008080;fill-opacity:1;stroke:none;stroke-width:0.26458332"
       xml:space="preserve"><tspan
         style="fill:#008080;stroke-width:0.26458332"
         y="164.27353"
         x="36.22641"
         id="tspan4561"
         sodipodi:role="line">function fd () {return 'Hi!'}</tspan></text>
    <text
       id="text4567"
       y="54.160309"
       x="35.392178"
       style="font-style:normal;font-weight:normal;font-size:9.8777771px;line-height:1.25;font-family:sans-serif;letter-spacing:0px;word-spacing:0px;fill:#aa0000;fill-opacity:1;stroke:none;stroke-width:0.26458332"
       xml:space="preserve"><tspan
         style="fill:#aa0000;stroke-width:0.26458332"
         y="54.160309"
         x="35.392178"
         id="tspan4565"
         sodipodi:role="line">fe()</tspan></text>
    <text
       xml:space="preserve"
       style="font-style:normal;font-weight:normal;font-size:9.8777771px;line-height:1.25;font-family:sans-serif;letter-spacing:0px;word-spacing:0px;fill:#000080;fill-opacity:1;stroke:none;stroke-width:0.26458332"
       x="35.959141"
       y="67.389488"
       id="text4571"><tspan
         sodipodi:role="line"
         id="tspan4569"
         x="35.959141"
         y="67.389488"
         style="fill:#000080;stroke-width:0.26458332">fea()</tspan></text>
    <text
       id="text4575"
       y="80.618698"
       x="35.959141"
       style="font-style:normal;font-weight:normal;font-size:9.8777771px;line-height:1.25;font-family:sans-serif;letter-spacing:0px;word-spacing:0px;fill:#ff6600;fill-opacity:1;stroke:none;stroke-width:0.26458332"
       xml:space="preserve"><tspan
         style="fill:#ff6600;stroke-width:0.26458332"
         y="80.618698"
         x="35.959141"
         id="tspan4573"
         sodipodi:role="line">fen()</tspan></text>
    <text
       xml:space="preserve"
       style="font-style:normal;font-weight:normal;font-size:9.8777771px;line-height:1.25;font-family:sans-serif;letter-spacing:0px;word-spacing:0px;fill:#008080;fill-opacity:1;stroke:none;stroke-width:0.26458332"
       x="35.424603"
       y="93.714867"
       id="text4579"><tspan
         sodipodi:role="line"
         id="tspan4577"
         x="35.424603"
         y="93.714867"
         style="fill:#008080;stroke-width:0.26458332">fd()</tspan></text>
    <text
       xml:space="preserve"
       style="font-style:normal;font-weight:normal;font-size:9.8777771px;line-height:1.25;font-family:sans-serif;letter-spacing:0px;word-spacing:0px;fill:#008000;fill-opacity:1;stroke:none;stroke-width:0.26458332"
       x="36.193985"
       y="42.752281"
       id="text4583"><tspan
         sodipodi:role="line"
         id="tspan4581"
         x="36.193985"
         y="42.752281"
         style="fill:#008000;stroke-width:0.26458332">.....................................</tspan></text>
    <text
       id="text4587"
       y="35.873108"
       x="36.193985"
       style="font-style:normal;font-weight:normal;font-size:9.8777771px;line-height:1.25;font-family:sans-serif;letter-spacing:0px;word-spacing:0px;fill:#008000;fill-opacity:1;stroke:none;stroke-width:0.26458332"
       xml:space="preserve"><tspan
         style="fill:#008000;stroke-width:0.26458332"
         y="35.873108"
         x="36.193985"
         id="tspan4585"
         sodipodi:role="line">.....................................</tspan></text>
    <text
       xml:space="preserve"
       style="font-style:normal;font-weight:normal;font-size:9.8777771px;line-height:1.25;font-family:sans-serif;letter-spacing:0px;word-spacing:0px;fill:#008000;fill-opacity:1;stroke:none;stroke-width:0.26458332"
       x="36.193985"
       y="28.993927"
       id="text4591"><tspan
         sodipodi:role="line"
         id="tspan4589"
         x="36.193985"
         y="28.993927"
         style="fill:#008000;stroke-width:0.26458332">.....................................</tspan></text>
    <path
       style="opacity:1;fill:#000080;fill-opacity:0.31372549;stroke:none;stroke-width:3.80000019;stroke-miterlimit:4;stroke-dasharray:3.79999993, 3.79999993;stroke-dashoffset:0;stroke-opacity:0.31372549"
       id="path5317"
       d="m 26.981265,38.446111 c -0.0186,-0.814109 -0.143581,-1.603193 -0.239885,-2.399447 -0.07285,-0.432701 -0.227002,-0.834286 -0.412622,-1.173181 -0.280269,-0.35082 -0.52241,-0.750487 -0.762735,-1.163828 -0.152663,-0.436377 -0.396443,-0.510832 -0.666724,-0.674468 -0.384501,-0.228372 -0.662703,-0.730457 -0.94546,-1.180743 -0.235626,-0.383402 -0.539693,-0.432377 -0.860438,-0.472816 -0.393253,-0.04729 -0.779088,-0.185336 -1.172745,-0.24578 -0.365992,-0.03077 -0.736229,-0.09459 -1.099455,-0.0022 -0.479552,0.130245 -0.966107,0.174335 -1.451777,0.202323 -0.568169,0.02782 -1.136754,0.02234 -1.705138,0.02613 -0.465418,0.106515 -0.930647,0.196886 -1.400062,0.24616 -0.478347,-0.0392 -0.871284,0.400388 -1.306409,0.643335 -0.416828,0.208309 -0.860389,0.157138 -1.283482,0.293284 -0.398363,0.07806 -0.769339,0.313727 -1.149311,0.502456 -0.159025,0.182006 -0.365038,0.229889 -0.535152,0.370209 -0.05684,0.04696 -0.213174,0.223988 -0.157138,0.174756 2.048269,-1.799931 2.763873,-2.66688 1.931674,-1.680168 -0.279787,0.433438 -0.573339,0.843041 -0.862026,1.26171 -0.771948,1.14064 -1.787848,1.718209 -2.712837,2.547496 -0.04558,0.04089 -0.180156,0.169108 -0.134578,0.128264 2.185496,-1.957291 2.819437,-2.773229 2.070467,-1.825234 -0.132907,0.355119 -0.301506,0.674203 -0.441871,1.022826 -0.222257,0.501074 -0.416292,1.030139 -0.637916,1.532675 -0.224118,0.60892 -0.501169,1.163112 -0.735116,1.761557 -0.22878,0.570061 -0.413654,1.1628 -0.507859,1.820218 -0.07118,0.498633 -0.15013,0.99472 -0.310424,1.442688 -0.238134,0.562449 -0.332144,1.195474 -0.39849,1.851712 -0.06086,0.706313 -0.06984,1.419737 -0.07361,2.131323 0.0018,0.688635 -9.27e-4,1.377249 -7.84e-4,2.065884 0.003,0.70147 0.003,1.402919 0.003,2.104401 -0.02819,0.579588 0.0221,1.122495 0.142529,1.667321 0.142745,0.594787 0.177812,1.228272 0.200264,1.857087 0.04226,0.831327 0.192393,1.63731 0.329694,2.439583 0.09485,0.610884 0.213417,1.217658 0.393228,1.780929 0.152988,0.48893 0.272024,1.010948 0.489032,1.44211 0.215141,0.439601 0.467528,0.830446 0.710526,1.232622 0.332319,0.487771 0.633458,1.031736 0.923919,1.581414 0.233254,0.578896 0.610828,0.770849 1.000191,0.998256 0.393606,0.133364 0.732135,0.477633 1.117286,0.654409 0.380455,0.152669 0.759284,0.313558 1.139036,0.473974 0.582579,0.238193 1.177041,0.364392 1.77618,0.447256 0.384465,-0.01475 0.786173,0.143481 1.170275,0.07048 0.08294,-0.0156 0.321991,-0.160889 0.403371,-0.207718 0.974535,-0.605405 2.972845,-2.509232 -0.94411,1.008081 1.236988,-1.234038 2.301536,-2.478137 3.720007,-2.740685 0.418562,-0.03456 0.811135,-0.299522 1.176386,-0.604047 0.805585,-0.648542 2.058653,-1.774447 -1.593026,1.456083 -0.08234,0.07284 0.159294,-0.159666 0.237729,-0.242324 0.07339,-0.0773 0.145144,-0.158359 0.217702,-0.237518 0.07593,-0.07954 0.151883,-0.159034 0.22781,-0.238572 0.34547,-0.341926 0.646911,-0.778521 0.993087,-1.117083 6.414911,-5.750548 0.388282,-0.344581 0.291336,-0.258088 0.133581,-0.09745 0.243794,-0.263441 0.369752,-0.377543 0.809561,-0.733399 1.624535,-1.452079 2.436805,-2.178118 0.990458,-0.385004 2.648048,-2.117405 -1.397552,1.47358 0.350688,-0.467838 0.649816,-1.049546 0.897706,-1.656969 0.173122,-0.533774 0.396215,-1.017039 0.624858,-1.494036 0.328346,-0.510696 0.517977,-1.125715 0.640809,-1.814283 0.05515,-0.576687 0.167838,-1.124636 0.312133,-1.659813 0.155737,-0.523102 0.286768,-1.062852 0.411226,-1.605659 0.147354,-0.602606 0.230909,-1.238367 0.326297,-1.864973 0.08593,-0.56744 0.110698,-1.149324 0.124444,-1.730041 0.01213,-0.548472 -0.01186,-1.096775 0.04437,-1.640151 0.0649,-0.479964 0.119296,-0.964599 0.111668,-1.456294 -0.01968,-0.517672 -0.104121,-1.009468 -0.195655,-1.503882 -0.09296,-0.518662 -0.114497,-1.05701 -0.128756,-1.59233 0.01617,-0.560953 -0.05385,-1.108029 -0.107652,-1.659022 -0.06312,-0.543721 -0.06695,-1.079737 -0.0081,-1.62251 0.06426,-0.500918 0.08612,-1.010404 0.09957,-1.519731 0.0065,-0.366162 0.0035,-0.182554 0.0075,-0.550748 0,0 2.382458,-1.892417 2.382458,-1.892417 v 0 c -0.0021,0.372695 -6.71e-4,0.186643 -0.0043,0.558208 -0.0089,0.525209 -0.02102,1.052256 -0.07927,1.570885 -0.06118,0.507185 -0.109997,0.988743 -0.03552,1.505197 0.05164,0.565479 0.141748,1.124059 0.12245,1.699229 0.0097,0.503193 0.02129,1.010581 0.101344,1.500948 0.09315,0.522153 0.190318,1.035682 0.218538,1.580086 0.03935,0.520513 -0.0078,1.043201 -0.0766,1.554703 -0.07806,0.523948 -0.07081,1.045161 -0.0679,1.582729 -0.0097,0.604612 -0.02668,1.211331 -0.105253,1.805486 -0.09032,0.642775 -0.188727,1.28633 -0.30777,1.91587 -0.140346,0.539582 -0.245168,1.10126 -0.401635,1.631476 -0.164388,0.498991 -0.293843,1.033077 -0.340289,1.592221 -0.09938,0.698115 -0.23657,1.472585 -0.587535,1.9631 -0.231611,0.466459 -0.47548,0.921698 -0.648167,1.450249 -0.22029,0.667303 -0.544178,1.224251 -0.847406,1.802898 -1.721653,1.587404 -1.878385,1.932946 -3.178392,2.682328 2.353246,-2.151745 2.795783,-2.660413 1.916456,-1.682284 -1.379989,1.535031 -4.989333,4.308181 -0.429228,0.381294 -0.355809,0.335308 -0.685961,0.70767 -1.010733,1.115949 -0.231395,0.228962 -0.448725,0.518726 -0.682527,0.735899 -0.967621,0.898776 -1.941121,1.865538 -2.964735,2.634617 -0.390694,0.27048 -0.79975,0.458093 -1.227926,0.504707 -1.153047,0.319206 -2.812658,2.047548 0.891621,-1.247164 -1.171187,1.053849 -2.344187,2.332933 -3.646785,3.026791 -0.532378,0.181837 -1.079559,0.04607 -1.617734,-0.0089 -0.611551,-0.103142 -1.22059,-0.245316 -1.816691,-0.487648 C 12.886943,66.08157 12.499464,65.940872 12.1192,65.757196 11.741837,65.541765 11.38754,65.237163 10.996384,65.07928 10.576947,64.804838 10.180066,64.52822 9.925505,63.903186 9.638761,63.362344 9.341716,62.829051 9.015435,62.345807 8.759081,61.939391 8.492229,61.545928 8.278354,61.080219 8.060894,60.617743 7.9211,60.091307 7.768463,59.572333 7.57235,58.987013 7.456375,58.345574 7.359157,57.704249 7.217706,56.875821 7.070675,56.044738 6.997796,55.193369 6.978116,54.603733 6.956796,54.006859 6.825321,53.44699 6.691956,52.859373 6.609856,52.279786 6.648237,51.649154 c -3.02e-4,-0.702106 -6.6e-4,-1.404212 5.29e-4,-2.106331 -0.0015,-0.688994 -0.0081,-1.377962 -0.0038,-2.066985 0.0035,-0.729453 0.0054,-1.460534 0.06242,-2.185793 0.05809,-0.686684 0.11183,-1.378999 0.339847,-1.984871 0.05073,-0.131594 0.116142,-0.248941 0.163446,-0.38357 0.101156,-0.287931 0.09787,-0.640364 0.190129,-0.935157 0.07299,-0.703346 0.224333,-1.357628 0.484956,-1.949072 0.204064,-0.635395 0.500217,-1.168654 0.717898,-1.790944 0.215977,-0.504509 0.444709,-0.993283 0.619103,-1.538754 0.166518,-0.296065 0.0015,0.02192 0.144039,-0.340787 0.09687,-0.246707 0.271884,-0.382685 0.293641,-0.70426 0.02614,-0.06972 0.03474,-0.166031 0.07849,-0.209109 0.78715,-0.775402 1.597207,-1.492451 2.398684,-2.231085 0.04539,-0.04173 0.186895,-0.151742 0.141506,-0.109971 -0.710492,0.654835 -1.425772,1.296872 -2.137183,1.949254 -0.09984,0.09155 0.418058,-0.34534 0.291156,-0.295813 0.280701,-0.444385 0.609028,-0.804697 0.859619,-1.296691 0.95678,-1.334188 2.14657,-2.252695 3.338209,-2.976682 0.385167,-0.199962 0.773355,-0.378639 1.178116,-0.452453 0.421147,-0.06993 0.849258,-0.110729 1.247179,-0.360556 0.439699,-0.279205 0.863673,-0.581783 1.352149,-0.546655 0.468817,-0.06188 0.933523,-0.186642 1.404024,-0.212649 0.566681,4e-4 1.133562,-0.0033 1.699777,-0.04329 0.486317,-0.04405 0.969885,-0.121225 1.452168,-0.229004 0.378573,-0.02403 0.757778,0.0055 1.134349,0.07161 0.391301,0.07907 0.77823,0.206664 1.172521,0.247466 0.370884,0.08734 0.701424,0.258594 0.961758,0.705664 0.264063,0.41375 0.513012,0.862211 0.885624,1.025489 0.305002,0.171385 0.558959,0.405489 0.736625,0.846186 0.236543,0.424616 0.49743,0.800469 0.76846,1.172102 0.211584,0.399925 0.384512,0.869857 0.470323,1.372549 0.08679,0.804309 0.207568,1.598835 0.253659,2.413011 0,0 -2.366284,1.943807 -2.366284,1.943807 z"
       inkscape:connector-curvature="0" />
  </g>
</svg>
